<svg width="120" height="60" viewBox="0 0 120 60" fill="none" xmlns="http://www.w3.org/2000/svg">
<path d="M5.27051 53.0381C5.27051 52.8558 5.22949 52.6872 5.14746 52.5322C5.06999 52.3727 4.9082 52.2292 4.66211 52.1016C4.42057 51.9694 4.05599 51.8555 3.56836 51.7598C3.1582 51.6732 2.78678 51.5706 2.4541 51.4521C2.12598 51.3337 1.8457 51.1901 1.61328 51.0215C1.38542 50.8529 1.20996 50.6546 1.08691 50.4268C0.963867 50.1989 0.902344 49.9323 0.902344 49.627C0.902344 49.3353 0.966146 49.0596 1.09375 48.7998C1.22591 48.54 1.41048 48.3099 1.64746 48.1094C1.889 47.9089 2.17839 47.7516 2.51562 47.6377C2.85286 47.5238 3.22884 47.4668 3.64355 47.4668C4.236 47.4668 4.74186 47.5716 5.16113 47.7812C5.5804 47.9909 5.90169 48.2712 6.125 48.6221C6.34831 48.9684 6.45996 49.3535 6.45996 49.7773H5.19531C5.19531 49.5723 5.13379 49.374 5.01074 49.1826C4.89225 48.9867 4.7168 48.8249 4.48438 48.6973C4.25651 48.5697 3.97624 48.5059 3.64355 48.5059C3.29264 48.5059 3.00781 48.5605 2.78906 48.6699C2.57487 48.7747 2.41764 48.9092 2.31738 49.0732C2.22168 49.2373 2.17383 49.4105 2.17383 49.5928C2.17383 49.7295 2.19661 49.8525 2.24219 49.9619C2.29232 50.0667 2.37891 50.1647 2.50195 50.2559C2.625 50.3424 2.79818 50.4245 3.02148 50.502C3.24479 50.5794 3.52962 50.6569 3.87598 50.7344C4.4821 50.8711 4.98112 51.0352 5.37305 51.2266C5.76497 51.418 6.05664 51.6527 6.24805 51.9307C6.43945 52.2087 6.53516 52.5459 6.53516 52.9424C6.53516 53.266 6.4668 53.5622 6.33008 53.8311C6.19792 54.0999 6.00423 54.3324 5.74902 54.5283C5.49837 54.7197 5.19759 54.8701 4.84668 54.9795C4.50033 55.0843 4.11068 55.1367 3.67773 55.1367C3.02604 55.1367 2.47461 55.0205 2.02344 54.7881C1.57227 54.5557 1.23047 54.2549 0.998047 53.8857C0.765625 53.5166 0.649414 53.127 0.649414 52.7168H1.9209C1.93913 53.0632 2.03939 53.3389 2.22168 53.5439C2.40397 53.7445 2.62728 53.888 2.8916 53.9746C3.15592 54.0566 3.41797 54.0977 3.67773 54.0977C4.02409 54.0977 4.31348 54.0521 4.5459 53.9609C4.78288 53.8698 4.96289 53.7445 5.08594 53.585C5.20898 53.4255 5.27051 53.2432 5.27051 53.0381ZM11.993 47.6035V48.5742H7.99395V47.6035H11.993ZM9.34746 45.8057H10.6121V53.168C10.6121 53.4186 10.6508 53.6077 10.7283 53.7354C10.8058 53.863 10.9061 53.9473 11.0291 53.9883C11.1521 54.0293 11.2843 54.0498 11.4256 54.0498C11.5304 54.0498 11.6398 54.0407 11.7537 54.0225C11.8722 53.9997 11.9611 53.9814 12.0203 53.9678L12.0271 55C11.9269 55.0319 11.7947 55.0615 11.6307 55.0889C11.4712 55.1208 11.2775 55.1367 11.0496 55.1367C10.7397 55.1367 10.4549 55.0752 10.1951 54.9521C9.93535 54.8291 9.72799 54.624 9.57305 54.3369C9.42266 54.0452 9.34746 53.6533 9.34746 53.1611V45.8057ZM15.441 48.7656V55H14.1764V47.6035H15.4068L15.441 48.7656ZM17.7516 47.5625L17.7447 48.7383C17.6399 48.7155 17.5396 48.7018 17.4439 48.6973C17.3528 48.6882 17.248 48.6836 17.1295 48.6836C16.8378 48.6836 16.5803 48.7292 16.357 48.8203C16.1337 48.9115 15.9446 49.0391 15.7896 49.2031C15.6347 49.3672 15.5117 49.5632 15.4205 49.791C15.3339 50.0143 15.277 50.2604 15.2496 50.5293L14.8941 50.7344C14.8941 50.2878 14.9374 49.8685 15.024 49.4766C15.1152 49.0846 15.2542 48.7383 15.441 48.4375C15.6279 48.1322 15.8648 47.8952 16.152 47.7266C16.4436 47.5534 16.79 47.4668 17.191 47.4668C17.2822 47.4668 17.387 47.4782 17.5055 47.501C17.624 47.5192 17.706 47.5397 17.7516 47.5625ZM22.5531 55.1367C22.0382 55.1367 21.571 55.0501 21.1518 54.877C20.737 54.6992 20.3793 54.4508 20.0785 54.1318C19.7823 53.8128 19.5544 53.4346 19.3949 52.9971C19.2354 52.5596 19.1557 52.0811 19.1557 51.5615V51.2744C19.1557 50.6729 19.2445 50.1374 19.4223 49.668C19.6 49.194 19.8415 48.793 20.1469 48.4648C20.4522 48.1367 20.7986 47.8883 21.1859 47.7197C21.5733 47.5511 21.9743 47.4668 22.3891 47.4668C22.9177 47.4668 23.3734 47.5579 23.7563 47.7402C24.1436 47.9225 24.4604 48.1777 24.7064 48.5059C24.9525 48.8294 25.1348 49.2122 25.2533 49.6543C25.3718 50.0918 25.4311 50.5703 25.4311 51.0898V51.6572H19.9076V50.625H24.1664V50.5293C24.1482 50.2012 24.0798 49.8822 23.9613 49.5723C23.8474 49.2624 23.6651 49.0072 23.4145 48.8066C23.1638 48.6061 22.822 48.5059 22.3891 48.5059C22.102 48.5059 21.8376 48.5674 21.5961 48.6904C21.3546 48.8089 21.1472 48.9867 20.974 49.2236C20.8008 49.4606 20.6664 49.75 20.5707 50.0918C20.475 50.4336 20.4271 50.8278 20.4271 51.2744V51.5615C20.4271 51.9124 20.475 52.2428 20.5707 52.5527C20.671 52.8581 20.8145 53.127 21.0014 53.3594C21.1928 53.5918 21.4229 53.7741 21.6918 53.9062C21.9652 54.0384 22.2751 54.1045 22.6215 54.1045C23.0681 54.1045 23.4464 54.0133 23.7563 53.8311C24.0661 53.6488 24.3373 53.4049 24.5697 53.0996L25.3354 53.708C25.1758 53.9495 24.973 54.1797 24.727 54.3984C24.4809 54.6172 24.1778 54.7949 23.8178 54.9316C23.4623 55.0684 23.0408 55.1367 22.5531 55.1367ZM30.677 55.1367C30.162 55.1367 29.6949 55.0501 29.2756 54.877C28.8609 54.6992 28.5031 54.4508 28.2023 54.1318C27.9061 53.8128 27.6783 53.4346 27.5187 52.9971C27.3592 52.5596 27.2795 52.0811 27.2795 51.5615V51.2744C27.2795 50.6729 27.3684 50.1374 27.5461 49.668C27.7238 49.194 27.9654 48.793 28.2707 48.4648C28.576 48.1367 28.9224 47.8883 29.3098 47.7197C29.6971 47.5511 30.0982 47.4668 30.5129 47.4668C31.0415 47.4668 31.4973 47.5579 31.8801 47.7402C32.2674 47.9225 32.5842 48.1777 32.8303 48.5059C33.0764 48.8294 33.2587 49.2122 33.3771 49.6543C33.4956 50.0918 33.5549 50.5703 33.5549 51.0898V51.6572H28.0314V50.625H32.2902V50.5293C32.272 50.2012 32.2036 49.8822 32.0852 49.5723C31.9712 49.2624 31.7889 49.0072 31.5383 48.8066C31.2876 48.6061 30.9458 48.5059 30.5129 48.5059C30.2258 48.5059 29.9615 48.5674 29.7199 48.6904C29.4784 48.8089 29.271 48.9867 29.0979 49.2236C28.9247 49.4606 28.7902 49.75 28.6945 50.0918C28.5988 50.4336 28.551 50.8278 28.551 51.2744V51.5615C28.551 51.9124 28.5988 52.2428 28.6945 52.5527C28.7948 52.8581 28.9383 53.127 29.1252 53.3594C29.3166 53.5918 29.5467 53.7741 29.8156 53.9062C30.0891 54.0384 30.399 54.1045 30.7453 54.1045C31.1919 54.1045 31.5702 54.0133 31.8801 53.8311C32.19 53.6488 32.4611 53.4049 32.6936 53.0996L33.4592 53.708C33.2997 53.9495 33.0969 54.1797 32.8508 54.3984C32.6047 54.6172 32.3016 54.7949 31.9416 54.9316C31.5861 55.0684 31.1646 55.1367 30.677 55.1367ZM38.8281 47.6035V48.5742H34.8291V47.6035H38.8281ZM36.1826 45.8057H37.4473V53.168C37.4473 53.4186 37.486 53.6077 37.5635 53.7354C37.641 53.863 37.7412 53.9473 37.8643 53.9883C37.9873 54.0293 38.1195 54.0498 38.2607 54.0498C38.3656 54.0498 38.4749 54.0407 38.5889 54.0225C38.7074 53.9997 38.7962 53.9814 38.8555 53.9678L38.8623 55C38.762 55.0319 38.6299 55.0615 38.4658 55.0889C38.3063 55.1208 38.1126 55.1367 37.8848 55.1367C37.5749 55.1367 37.29 55.0752 37.0303 54.9521C36.7705 54.8291 36.5632 54.624 36.4082 54.3369C36.2578 54.0452 36.1826 53.6533 36.1826 53.1611V45.8057ZM47.0709 55H45.8063V46.8242C45.8063 46.291 45.902 45.8421 46.0934 45.4775C46.2893 45.1084 46.5696 44.8304 46.9342 44.6436C47.2988 44.4521 47.7317 44.3564 48.233 44.3564C48.3788 44.3564 48.5247 44.3656 48.6705 44.3838C48.8209 44.402 48.9667 44.4294 49.108 44.4658L49.0396 45.498C48.9439 45.4753 48.8346 45.4593 48.7115 45.4502C48.593 45.4411 48.4745 45.4365 48.3561 45.4365C48.0872 45.4365 47.8548 45.4912 47.6588 45.6006C47.4674 45.7054 47.3216 45.8604 47.2213 46.0654C47.121 46.2705 47.0709 46.5234 47.0709 46.8242V55ZM48.6432 47.6035V48.5742H44.6373V47.6035H48.6432ZM50.4164 51.3838V51.2266C50.4164 50.6934 50.4939 50.1989 50.6488 49.7432C50.8038 49.2829 51.0271 48.8841 51.3187 48.5469C51.6104 48.2051 51.9636 47.9408 52.3783 47.7539C52.793 47.5625 53.2579 47.4668 53.7729 47.4668C54.2924 47.4668 54.7595 47.5625 55.1742 47.7539C55.5935 47.9408 55.949 48.2051 56.2406 48.5469C56.5368 48.8841 56.7624 49.2829 56.9174 49.7432C57.0723 50.1989 57.1498 50.6934 57.1498 51.2266V51.3838C57.1498 51.917 57.0723 52.4115 56.9174 52.8672C56.7624 53.3229 56.5368 53.7217 56.2406 54.0635C55.949 54.4007 55.5958 54.665 55.1811 54.8564C54.7709 55.0433 54.3061 55.1367 53.7865 55.1367C53.267 55.1367 52.7999 55.0433 52.3852 54.8564C51.9704 54.665 51.615 54.4007 51.3187 54.0635C51.0271 53.7217 50.8038 53.3229 50.6488 52.8672C50.4939 52.4115 50.4164 51.917 50.4164 51.3838ZM51.6811 51.2266V51.3838C51.6811 51.7529 51.7243 52.1016 51.8109 52.4297C51.8975 52.7533 52.0274 53.0404 52.2006 53.291C52.3783 53.5417 52.5993 53.7399 52.8637 53.8857C53.128 54.027 53.4356 54.0977 53.7865 54.0977C54.1329 54.0977 54.4359 54.027 54.6957 53.8857C54.96 53.7399 55.1788 53.5417 55.352 53.291C55.5251 53.0404 55.655 52.7533 55.7416 52.4297C55.8327 52.1016 55.8783 51.7529 55.8783 51.3838V51.2266C55.8783 50.862 55.8327 50.5179 55.7416 50.1943C55.655 49.8662 55.5229 49.5768 55.3451 49.3262C55.1719 49.071 54.9532 48.8704 54.6889 48.7246C54.4291 48.5788 54.1238 48.5059 53.7729 48.5059C53.4265 48.5059 53.1212 48.5788 52.8568 48.7246C52.5971 48.8704 52.3783 49.071 52.2006 49.3262C52.0274 49.5768 51.8975 49.8662 51.8109 50.1943C51.7243 50.5179 51.6811 50.862 51.6811 51.2266ZM59.1008 51.3838V51.2266C59.1008 50.6934 59.1783 50.1989 59.3332 49.7432C59.4882 49.2829 59.7115 48.8841 60.0031 48.5469C60.2948 48.2051 60.648 47.9408 61.0627 47.7539C61.4774 47.5625 61.9423 47.4668 62.4572 47.4668C62.9768 47.4668 63.4439 47.5625 63.8586 47.7539C64.2779 47.9408 64.6333 48.2051 64.925 48.5469C65.2212 48.8841 65.4468 49.2829 65.6018 49.7432C65.7567 50.1989 65.8342 50.6934 65.8342 51.2266V51.3838C65.8342 51.917 65.7567 52.4115 65.6018 52.8672C65.4468 53.3229 65.2212 53.7217 64.925 54.0635C64.6333 54.4007 64.2801 54.665 63.8654 54.8564C63.4553 55.0433 62.9904 55.1367 62.4709 55.1367C61.9514 55.1367 61.4842 55.0433 61.0695 54.8564C60.6548 54.665 60.2993 54.4007 60.0031 54.0635C59.7115 53.7217 59.4882 53.3229 59.3332 52.8672C59.1783 52.4115 59.1008 51.917 59.1008 51.3838ZM60.3654 51.2266V51.3838C60.3654 51.7529 60.4087 52.1016 60.4953 52.4297C60.5819 52.7533 60.7118 53.0404 60.885 53.291C61.0627 53.5417 61.2837 53.7399 61.548 53.8857C61.8124 54.027 62.12 54.0977 62.4709 54.0977C62.8173 54.0977 63.1203 54.027 63.3801 53.8857C63.6444 53.7399 63.8632 53.5417 64.0363 53.291C64.2095 53.0404 64.3394 52.7533 64.426 52.4297C64.5171 52.1016 64.5627 51.7529 64.5627 51.3838V51.2266C64.5627 50.862 64.5171 50.5179 64.426 50.1943C64.3394 49.8662 64.2072 49.5768 64.0295 49.3262C63.8563 49.071 63.6376 48.8704 63.3732 48.7246C63.1135 48.5788 62.8081 48.5059 62.4572 48.5059C62.1109 48.5059 61.8055 48.5788 61.5412 48.7246C61.2814 48.8704 61.0627 49.071 60.885 49.3262C60.7118 49.5768 60.5819 49.8662 60.4953 50.1943C60.4087 50.5179 60.3654 50.862 60.3654 51.2266ZM72.7822 53.5645V44.5H74.0537V55H72.8916L72.7822 53.5645ZM67.8057 51.3838V51.2402C67.8057 50.6751 67.874 50.1624 68.0107 49.7021C68.152 49.2373 68.3503 48.8385 68.6055 48.5059C68.8652 48.1732 69.1729 47.918 69.5283 47.7402C69.8883 47.5579 70.2894 47.4668 70.7314 47.4668C71.1963 47.4668 71.6019 47.5488 71.9482 47.7129C72.2992 47.8724 72.5954 48.1071 72.8369 48.417C73.083 48.7223 73.2767 49.0915 73.418 49.5244C73.5592 49.9574 73.6572 50.4473 73.7119 50.9941V51.623C73.6618 52.1654 73.5638 52.653 73.418 53.0859C73.2767 53.5189 73.083 53.888 72.8369 54.1934C72.5954 54.4987 72.2992 54.7334 71.9482 54.8975C71.5973 55.057 71.1872 55.1367 70.7178 55.1367C70.2848 55.1367 69.8883 55.0433 69.5283 54.8564C69.1729 54.6696 68.8652 54.4076 68.6055 54.0703C68.3503 53.7331 68.152 53.3366 68.0107 52.8809C67.874 52.4206 67.8057 51.9215 67.8057 51.3838ZM69.0771 51.2402V51.3838C69.0771 51.7529 69.1136 52.0993 69.1865 52.4229C69.264 52.7464 69.3825 53.0312 69.542 53.2773C69.7015 53.5234 69.9043 53.7171 70.1504 53.8584C70.3965 53.9951 70.6904 54.0635 71.0322 54.0635C71.4515 54.0635 71.7956 53.9746 72.0645 53.7969C72.3379 53.6191 72.5566 53.3844 72.7207 53.0928C72.8848 52.8011 73.0124 52.4844 73.1035 52.1426V50.4951C73.0488 50.2445 72.9691 50.0029 72.8643 49.7705C72.764 49.5335 72.6318 49.3239 72.4678 49.1416C72.3083 48.9548 72.11 48.8066 71.873 48.6973C71.6406 48.5879 71.3649 48.5332 71.0459 48.5332C70.6995 48.5332 70.401 48.6061 70.1504 48.752C69.9043 48.8932 69.7015 49.0892 69.542 49.3398C69.3825 49.5859 69.264 49.873 69.1865 50.2012C69.1136 50.5247 69.0771 50.8711 69.0771 51.2402Z" fill="#010F29"/>
<path d="M87.1323 20.9804C87.1023 20.9474 87.0778 20.8074 87.0778 20.6692C87.0778 20.531 87.0378 20.4179 86.9889 20.4179C86.94 20.4179 86.8702 20.1634 86.8337 19.8524C86.7483 19.1245 86.5792 18.4791 86.474 18.4791C86.4286 18.4791 86.3914 18.3881 86.3914 18.2769C86.3914 18.0487 86.1136 17.269 86.0029 17.1867C85.9631 17.157 85.8728 17.0116 85.8023 16.8635C85.7317 16.7154 85.5928 16.5309 85.4935 16.4535C85.3942 16.3761 85.3129 16.2623 85.3129 16.2006C85.3129 16.0975 84.7396 15.4338 84.6266 15.4061C84.5996 15.3995 84.4563 15.3292 84.308 15.2499C83.8926 15.0277 82.6857 15.2972 82.5418 15.6443C82.4847 15.7817 82.3806 15.8942 82.3102 15.8942C82.2399 15.8942 82.1384 15.9843 82.0848 16.0944C82.0312 16.2045 81.787 16.3562 81.5421 16.4315C81.2973 16.5068 81.0969 16.6106 81.0969 16.6621C81.0969 16.7137 80.6752 16.7558 80.1597 16.7558C79.6442 16.7558 79.2463 16.7134 79.2755 16.6616C79.3047 16.6097 79.1337 16.5074 78.8956 16.4342C78.6575 16.3609 78.3666 16.2216 78.2493 16.1245C77.7573 15.7174 77.1751 15.0902 77.1751 14.9673C77.1751 14.8946 77.1294 14.8183 77.0735 14.7979C76.9401 14.749 76.6946 13.9835 76.6891 13.5991C76.6868 13.4327 76.6448 13.3237 76.5959 13.3569C76.5469 13.3901 76.4855 13.1628 76.4594 12.8517C76.4003 12.1484 76.1888 11.2628 76.08 11.2628C76.0352 11.2628 75.9992 10.8387 76 10.3204C76.001 9.67209 76.0312 9.42835 76.0966 9.53948C76.1743 9.67166 76.1919 9.65944 76.1931 9.47224C76.1952 9.14737 76.4467 8.40495 76.633 8.1736C77.2836 7.36562 77.5593 7.08863 77.8369 6.96388C78.0121 6.88512 78.1555 6.78602 78.1555 6.74366C78.1555 6.70129 78.5086 6.57805 78.9402 6.46977C79.3717 6.3615 79.7028 6.24873 79.6759 6.21918C79.649 6.18962 79.7592 6.07712 79.9207 5.96917C80.0823 5.86123 80.2145 5.72373 80.2145 5.66362C80.2145 5.60351 80.2745 5.55433 80.3479 5.55433C80.4213 5.55433 80.6308 5.44527 80.8136 5.31199C80.9964 5.1787 81.3224 5.00223 81.5381 4.91983C81.7538 4.83744 81.9616 4.71664 81.9998 4.6514C82.0444 4.57536 82.6075 4.52416 83.5686 4.50877C84.3931 4.49557 85.123 4.48308 85.1904 4.48101C85.2578 4.47894 85.3129 4.39733 85.3129 4.29965C85.3129 4.12255 85.9191 3.40031 86.0679 3.40006C86.111 3.39999 86.276 3.27745 86.4344 3.12775C86.5929 2.97806 86.8245 2.82745 86.9492 2.79308C87.0738 2.75871 87.1758 2.69377 87.1758 2.64876C87.1758 2.53526 88.248 2.21541 88.6284 2.21541C88.8001 2.21541 88.9407 2.16695 88.9407 2.10771C88.9407 2.04847 89.1833 2 89.4799 2C89.7765 2 90.0192 2.03742 90.0192 2.08315C90.0192 2.12888 90.317 2.22744 90.681 2.30218C91.045 2.37692 91.3896 2.50593 91.4469 2.58887C91.5041 2.67181 91.6696 2.77237 91.8146 2.81234C91.9595 2.85231 92.0781 2.94466 92.0781 3.01757C92.0781 3.09047 92.2507 3.2423 92.4615 3.35497C92.6724 3.46763 92.828 3.58979 92.8074 3.62643C92.7868 3.66307 92.9001 3.82045 93.0592 3.97616C93.2182 4.13188 93.3762 4.38069 93.4101 4.52909C93.444 4.67748 93.5038 4.77707 93.5431 4.7504C93.5824 4.72372 93.6873 4.86946 93.7762 5.07426C93.8651 5.27906 93.9717 5.45022 94.013 5.45463C94.3999 5.49585 94.6089 5.62232 94.9367 6.0135C95.147 6.26448 95.3447 6.57889 95.376 6.71217C95.4074 6.84546 95.4673 6.95451 95.5093 6.95451C95.5512 6.95451 95.6126 7.09992 95.6457 7.27764C95.6788 7.45535 95.7329 7.74567 95.7659 7.92278C95.7989 8.09989 95.865 8.2182 95.9129 8.18569C95.9608 8.15318 96 8.44448 96 8.83303C96 9.23219 95.9574 9.53948 95.902 9.53948C95.848 9.53948 95.8039 9.63085 95.8039 9.74253C95.8039 10.0093 95.5617 10.6377 95.4894 10.5583C95.4585 10.5243 95.3734 10.6447 95.3004 10.8258C95.2275 11.0069 95.1139 11.1551 95.0481 11.1551C94.9822 11.1551 94.8793 11.2558 94.8193 11.379C94.7593 11.5022 94.5813 11.6523 94.4236 11.7127C94.266 11.773 94.1371 11.8609 94.1371 11.908C94.1371 11.955 93.8172 12.0794 93.4263 12.1844C93.0353 12.2893 92.6664 12.4482 92.6065 12.5375C92.4773 12.7299 92.5457 13.1123 92.7311 13.2338C92.8034 13.2812 92.8625 13.3909 92.8625 13.4776C92.8625 13.5643 92.9029 13.7194 92.9523 13.8223C93.1573 14.2492 93.3527 14.8068 93.3527 14.9647C93.3527 15.0576 93.4364 15.3169 93.5387 15.5408C93.8631 16.2515 94.0615 19.6752 93.7952 19.9677C93.7623 20.0039 93.5059 20.0122 93.2254 19.9862C91.7575 19.8501 88.6472 20.0032 88.9333 20.1974C88.9904 20.2362 88.7522 20.3575 88.4039 20.4669C88.0557 20.5763 87.7897 20.6993 87.8128 20.7404C87.8812 20.8621 87.2081 21.0637 87.1323 20.9804ZM87.7816 20.2792C87.9397 20.1099 88.7346 19.7716 88.9742 19.7716C89.07 19.7716 89.1241 19.7286 89.0945 19.676C89.0351 19.5703 89.4608 19.4921 90.681 19.3844L92.5684 19.3557L93.3037 19.3947L93.2957 18.389C93.2913 17.8359 93.2432 17.3512 93.1888 17.3119C93.1344 17.2727 93.0415 16.9497 92.9822 16.5943C92.8261 15.6575 92.7443 15.3089 92.6663 15.2479C92.6283 15.2183 92.5211 14.9396 92.4279 14.6286C92.3347 14.3176 92.2227 14.0632 92.1789 14.0632C92.1352 14.0632 92.0714 13.9408 92.0373 13.7913C92.0031 13.6418 91.8218 13.2988 91.6345 13.0291C91.4471 12.7594 91.2938 12.4669 91.2938 12.3791C91.2938 12.2913 91.2575 12.2441 91.2132 12.2741C91.1061 12.3468 90.8012 11.9498 90.8851 11.847C90.9211 11.8029 90.9022 11.7971 90.843 11.8341C90.7309 11.9042 90.0949 11.2016 90.0578 10.9666C90.0329 10.8091 90.3794 10.7817 90.4277 10.9373C90.4833 11.1163 91.983 11.2898 92.9115 11.2246C93.8876 11.1561 94.2595 11.07 94.181 10.9306C94.1525 10.8798 94.2454 10.8062 94.3875 10.767C94.5297 10.7278 94.7299 10.5447 94.8324 10.36C94.9349 10.1753 95.0223 10.0726 95.0266 10.1319C95.0309 10.1911 95.0939 10.0699 95.1666 9.86261C95.3912 9.2218 95.3065 7.58392 95.0389 7.39652C94.9879 7.36075 94.914 7.16904 94.8748 6.97048C94.8356 6.77193 94.7143 6.51149 94.6053 6.39174C94.4963 6.272 94.3487 6.05032 94.2773 5.89914C94.1549 5.63993 94.1481 5.65622 94.1591 6.18478C94.1775 7.0748 93.8451 7.21814 93.6813 6.39081C93.6492 6.22886 93.5886 6.11975 93.5465 6.14834C93.5043 6.17692 93.4243 6.05657 93.3685 5.88088C93.2609 5.54167 92.1626 4.26184 91.9791 4.26184C91.9194 4.26184 91.8952 4.21791 91.9254 4.16421C91.9556 4.11051 91.7376 3.9827 91.441 3.8802C91.1443 3.77769 90.9016 3.66204 90.9016 3.6232C90.9016 3.45599 89.9371 3.29268 88.9637 3.29505C87.8638 3.29773 87.1543 3.41733 87.0958 3.6099C87.0769 3.67227 87.0114 3.72331 86.9503 3.72331C86.747 3.72331 86.0026 4.07286 86.045 4.14838C86.068 4.18927 85.9348 4.28313 85.7489 4.35696C85.3099 4.53134 85.3204 4.72173 85.7787 4.90065C85.9809 4.9796 86.2125 5.10917 86.2934 5.18859C86.3743 5.26801 86.6059 5.4915 86.8081 5.68525C87.2101 6.07039 87.2936 6.41598 86.9846 6.41598C86.8794 6.41598 86.7581 6.35327 86.715 6.27663C86.6718 6.19998 86.4821 6.05568 86.2934 5.95596C86.1046 5.85624 85.9944 5.77027 86.0483 5.76493C86.1022 5.75957 85.9257 5.68462 85.6561 5.59834C84.8161 5.32957 83.2046 5.28152 82.313 5.49865C81.8868 5.60243 81.5161 5.718 81.4891 5.75547C81.3957 5.88526 81.0008 6.09286 80.8474 6.09286C80.7625 6.09286 80.7196 6.13991 80.752 6.19741C80.7843 6.25491 80.6977 6.33315 80.5594 6.37128C80.4211 6.4094 80.242 6.54411 80.1613 6.67063C80.0807 6.79715 79.9616 6.90066 79.8969 6.90066C79.8321 6.90066 79.7337 6.9976 79.6781 7.11608C79.55 7.38955 79.0587 7.92388 78.9354 7.92388C78.884 7.92388 78.8419 7.79984 78.8419 7.64825C78.8419 7.49193 78.8843 7.40144 78.9399 7.4392C78.9938 7.47581 79.0385 7.46655 79.0393 7.41863C79.0403 7.3707 79.0669 7.22377 79.0991 7.09211L79.1575 6.85274L78.7555 7.03826C78.5345 7.1403 78.3532 7.28437 78.3526 7.35842C78.3517 7.43246 78.309 7.49305 78.2568 7.49305C78.1635 7.49305 77.4267 8.24975 77.4178 8.3547C77.4078 8.47319 77.1395 8.95155 77.0453 9.01887C76.7074 9.26044 76.6838 11.9151 77.0172 12.1829C77.104 12.2527 77.1751 12.3864 77.1751 12.48C77.1751 12.5737 77.2192 12.6802 77.2731 12.7168C77.4075 12.8081 77.397 13.1741 77.2585 13.2248C77.1838 13.2522 77.1688 13.4002 77.214 13.6649C77.2765 14.0312 77.8472 14.7635 78.6175 15.4659C79.2284 16.023 81.7993 16.0449 82.1068 15.4957C82.1499 15.4187 82.2508 15.3556 82.3311 15.3556C82.4317 15.3556 82.4682 15.2638 82.4488 15.0595C82.4213 14.7711 82.4382 14.7604 83.0909 14.6556C83.4596 14.5963 83.7336 14.5177 83.6999 14.4809C83.6662 14.4441 83.8302 14.3609 84.0643 14.2962C84.2985 14.2314 84.6171 14.0585 84.7724 13.9119C84.9276 13.7654 85.0797 13.6483 85.1103 13.6517C85.3032 13.6731 85.414 13.6172 85.362 13.5246C85.3286 13.4654 85.3469 13.4169 85.4026 13.4169C85.5494 13.4169 86.3914 12.5381 86.3914 12.3849C86.3914 12.3135 86.449 12.2309 86.5194 12.2013C86.5897 12.1716 86.7045 11.9569 86.7745 11.7241C86.8444 11.4914 86.9922 11.2388 87.1029 11.1629C87.3004 11.0273 87.303 11.0383 87.2426 11.7631C87.1948 12.3365 87.1366 12.5344 86.9823 12.6492C86.873 12.7305 86.7836 12.8448 86.7836 12.9032C86.7836 13.0469 85.811 14.1036 85.5258 14.2699C85.0537 14.545 84.7648 14.9248 85.0276 14.9248C85.162 14.9248 85.5014 15.3644 85.5058 15.5441C85.5075 15.6182 85.5556 15.6788 85.6126 15.6788C85.7468 15.6788 86.2781 16.3177 86.3495 16.565C86.3799 16.67 86.4398 16.7558 86.4828 16.7558C86.5257 16.7558 86.6401 16.9861 86.7368 17.2674C86.8336 17.5488 86.9442 17.8033 86.9828 17.8329C87.1074 17.9287 87.2739 19.0095 87.2739 19.7231C87.2739 20.3375 87.2957 20.4179 87.4629 20.4179C87.5669 20.4179 87.7103 20.3555 87.7816 20.2792Z" fill="#FF5C00" stroke="#FF5C00"/>
<path d="M9.63 18.39C8.11 18.89 6.93 19.72 6.09 20.88C5.27 22.02 4.86 23.44 4.86 25.14C4.86 25.9 4.93 26.42 5.07 26.7C5.21 26.98 5.28 27.15 5.28 27.21C3.14 27.21 2.07 26.3 2.07 24.48C2.07 23.24 2.54 22 3.48 20.76C4.44 19.5 5.66 18.48 7.14 17.7C8.64 16.9 10.13 16.5 11.61 16.5C12.35 16.5 13.11 16.64 13.89 16.92L13.2 32.73L19.8 16.92H24.12L20.97 39H16.65L18.57 25.53L12.93 39H8.82L9.42 25.47L4.41 39H2.01L9.63 18.39ZM25.6533 24H29.9733L29.5833 25.86C30.2633 25.26 30.8733 24.8 31.4133 24.48C31.9733 24.16 32.5733 24 33.2133 24C33.8533 24 34.3533 24.22 34.7133 24.66C35.0933 25.1 35.2833 25.63 35.2833 26.25C35.2833 26.83 35.0933 27.34 34.7133 27.78C34.3333 28.22 33.8033 28.44 33.1233 28.44C32.6833 28.44 32.3833 28.34 32.2233 28.14C32.0833 27.92 31.9733 27.61 31.8933 27.21C31.8333 26.95 31.7733 26.76 31.7133 26.64C31.6533 26.52 31.5433 26.46 31.3833 26.46C30.9633 26.46 30.6033 26.55 30.3033 26.73C30.0233 26.89 29.6533 27.18 29.1933 27.6L26.7933 39H22.4733L25.6533 24ZM38.1926 39.12C37.5326 39.12 36.9726 38.89 36.5126 38.43C36.0526 37.97 35.8226 37.41 35.8226 36.75C35.8226 36.09 36.0526 35.53 36.5126 35.07C36.9726 34.59 37.5326 34.35 38.1926 34.35C38.8526 34.35 39.4126 34.59 39.8726 35.07C40.3526 35.53 40.5926 36.09 40.5926 36.75C40.5926 37.41 40.3526 37.97 39.8726 38.43C39.4126 38.89 38.8526 39.12 38.1926 39.12ZM51.3414 39.576C48.6294 39.576 46.6374 38.892 45.3654 37.524C44.0934 36.156 43.4574 33.888 43.4574 30.72C43.4574 28.2 43.8774 25.488 44.7174 22.584C45.5814 19.68 46.9494 17.196 48.8214 15.132C50.7174 13.044 53.1174 12 56.0214 12C57.8214 12 59.2734 12.396 60.3774 13.188C61.4814 13.98 62.0334 15.192 62.0334 16.824C62.0334 17.856 61.8294 18.672 61.4214 19.272C61.0134 19.848 60.3774 20.136 59.5134 20.136C58.6494 20.136 57.9654 19.824 57.4614 19.2C57.8934 18.984 58.2774 18.552 58.6134 17.904C58.9494 17.256 59.1174 16.584 59.1174 15.888C59.1174 15.24 58.9374 14.712 58.5774 14.304C58.2414 13.896 57.6894 13.692 56.9214 13.692C55.6494 13.692 54.4374 14.568 53.2854 16.32C52.1334 18.048 51.1974 20.232 50.4774 22.872C49.7814 25.512 49.4334 28.056 49.4334 30.504C49.4334 32.328 49.7454 33.72 50.3694 34.68C50.9934 35.64 52.1214 36.12 53.7534 36.12C55.1694 36.12 56.4774 35.808 57.6774 35.184C58.8774 34.56 59.9094 33.672 60.7734 32.52L61.6014 32.88C61.0014 34.392 60.1134 35.652 58.9374 36.66C57.7614 37.668 56.5014 38.412 55.1574 38.892C53.8134 39.348 52.5414 39.576 51.3414 39.576ZM75.464 39.216C74 39.216 72.92 38.832 72.224 38.064C71.552 37.272 71.216 36.3 71.216 35.148C71.216 34.644 71.276 34.08 71.396 33.456C71.516 32.808 71.636 32.184 71.756 31.584C71.9 30.984 71.996 30.6 72.044 30.432C72.236 29.592 72.416 28.764 72.584 27.948C72.752 27.132 72.836 26.472 72.836 25.968C72.836 24.744 72.404 24.132 71.54 24.132C70.916 24.132 70.364 24.444 69.884 25.068C69.404 25.668 69.02 26.46 68.732 27.444L66.284 39H61.1L66.32 14.52L71.648 13.8L69.704 22.872C70.904 21.528 72.308 20.856 73.916 20.856C75.14 20.856 76.112 21.192 76.832 21.864C77.552 22.536 77.912 23.556 77.912 24.924C77.912 25.62 77.828 26.4 77.66 27.264C77.492 28.104 77.252 29.136 76.94 30.36C76.748 31.104 76.568 31.836 76.4 32.556C76.256 33.252 76.184 33.804 76.184 34.212C76.184 34.692 76.292 35.064 76.508 35.328C76.724 35.592 77.096 35.724 77.624 35.724C78.344 35.724 78.92 35.472 79.352 34.968C79.784 34.44 80.216 33.636 80.648 32.556H82.16C81.272 35.196 80.24 36.972 79.064 37.884C77.912 38.772 76.712 39.216 75.464 39.216ZM87.5917 39.216C85.8157 39.216 84.4357 38.76 83.4517 37.848C82.4677 36.912 81.9757 35.46 81.9757 33.492C81.9757 31.836 82.2997 30.012 82.9477 28.02C83.5957 26.028 84.6517 24.312 86.1157 22.872C87.5797 21.408 89.4397 20.676 91.6957 20.676C94.3357 20.676 95.6557 21.828 95.6557 24.132C95.6557 25.476 95.2717 26.712 94.5037 27.84C93.7357 28.968 92.7157 29.88 91.4437 30.576C90.1717 31.248 88.8157 31.632 87.3757 31.728C87.3277 32.448 87.3037 32.928 87.3037 33.168C87.3037 34.344 87.5077 35.148 87.9157 35.58C88.3237 35.988 88.9837 36.192 89.8957 36.192C91.1917 36.192 92.2957 35.892 93.2077 35.292C94.1437 34.692 95.1637 33.78 96.2677 32.556H97.4917C94.8277 36.996 91.5277 39.216 87.5917 39.216ZM87.6637 30C88.5517 29.952 89.3917 29.64 90.1837 29.064C90.9997 28.488 91.6477 27.756 92.1277 26.868C92.6317 25.98 92.8837 25.044 92.8837 24.06C92.8837 23.076 92.5837 22.584 91.9837 22.584C91.1197 22.584 90.2677 23.34 89.4277 24.852C88.6117 26.364 88.0237 28.08 87.6637 30ZM94.8202 48C93.6922 48 92.7082 47.628 91.8682 46.884C91.0042 46.164 90.5722 45.24 90.5722 44.112C90.5722 43.08 90.8362 42.228 91.3642 41.556C91.8922 40.884 92.5762 40.344 93.4162 39.936C94.2562 39.552 95.3722 39.144 96.7642 38.712L101.12 18.156C101.6 15.852 102.44 14.256 103.64 13.368C104.864 12.48 106.208 12.036 107.672 12.036C108.8 12.036 109.784 12.408 110.624 13.152C111.488 13.872 111.92 14.796 111.92 15.924C111.92 16.476 111.884 16.968 111.812 17.4H110.12C110.168 16.872 110.192 16.548 110.192 16.428C110.192 16.044 110.06 15.744 109.796 15.528C109.532 15.312 109.208 15.204 108.824 15.204C108.32 15.204 107.828 15.432 107.348 15.888C106.868 16.32 106.52 17.076 106.304 18.156L105.692 21H108.32L108.068 22.44H105.404L101.264 41.88C100.784 44.208 99.9562 45.804 98.7802 46.668C97.6042 47.556 96.2842 48 94.8202 48ZM93.9922 44.796C94.9522 44.796 95.6362 43.86 96.0442 41.988L96.5122 39.9C95.2402 40.332 94.2682 40.824 93.5962 41.376C92.9002 41.952 92.5522 42.696 92.5522 43.608C92.5522 43.896 92.6962 44.16 92.9842 44.4C93.2722 44.664 93.6082 44.796 93.9922 44.796Z" fill="#FF5C00"/>
</svg>
